<svg xmlns="http://www.w3.org/2000/svg" viewBox="0 0 30 30"><defs><style>.cls-1{fill:#f15a2c;}</style></defs><title>instagram</title><g id="Layer_2" data-name="Layer 2"><g id="Layer_1-2" data-name="Layer 1"><path class="cls-1" d="M29.26,5.73a9.46,9.46,0,0,0-3.4-4.13A9.63,9.63,0,0,0,23.4.42,9.51,9.51,0,0,0,20.61,0H9.39A9.35,9.35,0,0,0,5.73.74,9.46,9.46,0,0,0,1.6,4.14,9.63,9.63,0,0,0,.42,6.6,9.51,9.51,0,0,0,0,9.39V20.61a9.35,9.35,0,0,0,.74,3.66,9.46,9.46,0,0,0,3.4,4.13A9.63,9.63,0,0,0,6.6,29.58,9.51,9.51,0,0,0,9.39,30H20.61a9.35,9.35,0,0,0,3.66-.74,9.46,9.46,0,0,0,4.13-3.4,9.63,9.63,0,0,0,1.18-2.46A9.51,9.51,0,0,0,30,20.61V9.39A9.35,9.35,0,0,0,29.26,5.73ZM27.5,20.61A6.79,6.79,0,0,1,27,23.29a6.86,6.86,0,0,1-2.5,3,6.52,6.52,0,0,1-1.8.87,6.92,6.92,0,0,1-2.05.31H9.39A6.79,6.79,0,0,1,6.71,27a6.86,6.86,0,0,1-3-2.5,6.52,6.52,0,0,1-.87-1.8,6.92,6.92,0,0,1-.31-2.05V9.39A6.79,6.79,0,0,1,3,6.71a6.86,6.86,0,0,1,2.5-3,6.52,6.52,0,0,1,1.8-.87A6.92,6.92,0,0,1,9.39,2.5H20.61A6.79,6.79,0,0,1,23.29,3a6.86,6.86,0,0,1,3,2.5,6.52,6.52,0,0,1,.87,1.8,6.92,6.92,0,0,1,.31,2.05Z"/><path class="cls-1" d="M22.09,12a7.8,7.8,0,0,0-2.81-3.41,7.92,7.92,0,0,0-2-1A7.58,7.58,0,0,0,15,7.25a7.74,7.74,0,0,0-6.43,3.42,7.92,7.92,0,0,0-1,2A7.58,7.58,0,0,0,7.2,15a7.74,7.74,0,0,0,3.42,6.43,7.92,7.92,0,0,0,2,1,7.58,7.58,0,0,0,2.3.35,7.74,7.74,0,0,0,6.43-3.42,7.92,7.92,0,0,0,1-2A7.63,7.63,0,0,0,22.7,15,7.79,7.79,0,0,0,22.09,12ZM19.79,17a5.26,5.26,0,0,1-1.91,2.31,5.25,5.25,0,0,1-2.93.9,5.21,5.21,0,0,1-4.35-2.32A5.25,5.25,0,0,1,9.7,15,5.21,5.21,0,0,1,12,10.65,4.82,4.82,0,0,1,13.39,10,5,5,0,0,1,15,9.75a5.21,5.21,0,0,1,4.35,2.32A4.82,4.82,0,0,1,20,13.44,5,5,0,0,1,20.2,15,5.27,5.27,0,0,1,19.79,17Z"/><circle class="cls-1" cx="23.21" cy="7.01" r="1.86"/></g></g></svg>