<svg xmlns="http://www.w3.org/2000/svg" viewBox="0 0 25.09 50"><defs><style>.cls-1{fill:#fff;}</style></defs><title>logo</title><g id="Layer_2" data-name="Layer 2"><g id="Layer_1-2" data-name="Layer 1"><path class="cls-1" d="M22.89,36.65A9.42,9.42,0,0,1,19.31,39c-3.25,1.18-6.85,1-10.24.6-1.22-.14-2.43-.32-3.64-.53l.1-.23a26.73,26.73,0,0,1,1.41-2.36l0,0c3.56-5.27,8.57-9.17,13.92-12.58l.15-.1c.45.38,1.13,1,1.32,1.19A8.73,8.73,0,0,1,25,32.68,7.84,7.84,0,0,1,22.89,36.65Z"/><path class="cls-1" d="M3.41,43.1a3.27,3.27,0,0,0-2.41,1,3.36,3.36,0,0,0-1,2.44A3.31,3.31,0,0,0,1,49a3.24,3.24,0,0,0,2.41,1,3.32,3.32,0,0,0,2.44-1,3.32,3.32,0,0,0,1-2.43,3.39,3.39,0,0,0-1-2.44A3.35,3.35,0,0,0,3.41,43.1Z"/><path class="cls-1" d="M22.59,11.89A11.72,11.72,0,0,1,22,15.06a10,10,0,0,1-2.17,3.5c-2.19,2.37-5,4.06-7.55,5.94a22.37,22.37,0,0,0-6.24,6.65,27.78,27.78,0,0,0-2.95,7.23c-.63-.22-1.23-.44-1.78-.66v-22l.1.07a3.5,3.5,0,0,0,4.76-.23,3.73,3.73,0,0,0,.71-3.66,25.45,25.45,0,0,0-1.64-3.6,6.64,6.64,0,0,1-.66-2.93,5.06,5.06,0,0,1,2.1-3.56,9.52,9.52,0,0,1,8-1.5,10,10,0,0,1,5.38,3.46A11.67,11.67,0,0,1,21.48,6a13.33,13.33,0,0,1,1.09,4.74C22.59,11.12,22.6,11.51,22.59,11.89Z"/></g></g></svg>