<svg xmlns="http://www.w3.org/2000/svg" viewBox="0 0 31.91 30"><defs><style>.cls-1{fill:#f15a2c;}</style></defs><title>snap</title><g id="Layer_2" data-name="Layer 2"><g id="Layer_1-2" data-name="Layer 1"><path class="cls-1" d="M31.35,22.52C27,21.8,25.07,17.35,25,17.16c0,0,0,0,0,0A1.38,1.38,0,0,1,24.83,16c.25-.59,1.17-.89,1.78-1.08a3.5,3.5,0,0,0,.46-.16c1.08-.42,1.62-1,1.61-1.55a1.28,1.28,0,0,0-1-1.11,1.65,1.65,0,0,0-.66-.13,1.34,1.34,0,0,0-.61.13,3.79,3.79,0,0,1-1.37.39,1,1,0,0,1-.54-.14c0-.22,0-.44,0-.68l0-.09c.13-2.17.3-4.87-.41-6.45A8.56,8.56,0,0,0,16.25,0h-.63A8.48,8.48,0,0,0,7.74,5.09c-.7,1.58-.53,4.28-.4,6.45,0,.25,0,.52,0,.77a1.17,1.17,0,0,1-.62.14,3.58,3.58,0,0,1-1.47-.39,1.18,1.18,0,0,0-.5-.11A1.58,1.58,0,0,0,3.24,13c-.08.46.12,1.13,1.6,1.71.14.06.3.11.46.16.61.2,1.54.49,1.78,1.08a1.46,1.46,0,0,1-.15,1.17s0,0,0,0c-.08.2-2,4.64-6.36,5.36a.66.66,0,0,0-.56.69.84.84,0,0,0,.08.3c.33.75,1.69,1.32,4.2,1.7A3.33,3.33,0,0,1,4.5,26c0,.23.11.49.18.75a.75.75,0,0,0,.78.56,3.52,3.52,0,0,0,.72-.1,7.91,7.91,0,0,1,1.7-.2,7.16,7.16,0,0,1,1.21.11,5.77,5.77,0,0,1,2.29,1.18A7.23,7.23,0,0,0,15.76,30h.39a7.17,7.17,0,0,0,4.38-1.72,6,6,0,0,1,2.29-1.18A8.5,8.5,0,0,1,24,27a8.77,8.77,0,0,1,1.7.18,3.11,3.11,0,0,0,.72.09h0a.71.71,0,0,0,.74-.55c.07-.26.13-.51.18-.74a3.19,3.19,0,0,1,.22-.76c2.5-.38,3.87-.95,4.2-1.7a.9.9,0,0,0,.08-.3A.66.66,0,0,0,31.35,22.52Z"/></g></g></svg>