<svg xmlns="http://www.w3.org/2000/svg" viewBox="0 0 36.91 30"><defs><style>.cls-1{fill:#f15a2c;}</style></defs><title>twitter</title><g id="Layer_2" data-name="Layer 2"><g id="Layer_1-2" data-name="Layer 1"><path class="cls-1" d="M36.91,3.55a15,15,0,0,1-4.34,1.19A7.6,7.6,0,0,0,35.9.55a15.24,15.24,0,0,1-4.81,1.84A7.58,7.58,0,0,0,18.18,9.3,21.54,21.54,0,0,1,2.57,1.39,7.57,7.57,0,0,0,4.91,11.5a7.52,7.52,0,0,1-3.43-.95v.1a7.57,7.57,0,0,0,6.08,7.42,7.78,7.78,0,0,1-2,.27,7.35,7.35,0,0,1-1.42-.14,7.57,7.57,0,0,0,7.07,5.26,15.18,15.18,0,0,1-9.4,3.24A15.44,15.44,0,0,1,0,26.6,21.41,21.41,0,0,0,11.61,30C25.54,30,33.16,18.46,33.16,8.45c0-.33,0-.65,0-1A15.27,15.27,0,0,0,36.91,3.55Z"/></g></g></svg>